<svg width="820" height="520" viewBox="0 0 820 520" fill="none" xmlns="http://www.w3.org/2000/svg">
  <defs>
    <linearGradient id="bg" x1="410" y1="0" x2="410" y2="520" gradientUnits="userSpaceOnUse">
      <stop stop-color="#121A2B"/>
      <stop offset="1" stop-color="#0B111D"/>
    </linearGradient>
    <linearGradient id="bar" x1="410" y1="0" x2="410" y2="14" gradientUnits="userSpaceOnUse">
      <stop stop-color="#5FA6FF"/>
      <stop offset="1" stop-color="#3D74E6"/>
    </linearGradient>
    <linearGradient id="danger" x1="708" y1="432" x2="708" y2="475" gradientUnits="userSpaceOnUse">
      <stop stop-color="#E35A38"/>
      <stop offset="1" stop-color="#CF4325"/>
    </linearGradient>
    <filter id="shadow" x="0" y="14" width="820" height="506" filterUnits="userSpaceOnUse" color-interpolation-filters="sRGB">
      <feFlood flood-opacity="0" result="BackgroundImageFix"/>
      <feColorMatrix in="SourceAlpha" type="matrix" values="0 0 0 0 0 0 0 0 0 0 0 0 0 0 0 0 0 0 127 0" result="hardAlpha"/>
      <feOffset dy="18"/>
      <feGaussianBlur stdDeviation="18"/>
      <feColorMatrix type="matrix" values="0 0 0 0 0.0117647 0 0 0 0 0.0235294 0 0 0 0 0.0588235 0 0 0 0.42 0"/>
      <feBlend mode="normal" in2="BackgroundImageFix" result="effect1_dropShadow_1_1"/>
      <feBlend mode="normal" in="SourceGraphic" in2="effect1_dropShadow_1_1" result="shape"/>
    </filter>
  </defs>

  <rect width="820" height="520" rx="22" fill="url(#bg)"/>
  <rect width="820" height="14" fill="url(#bar)"/>

  <g opacity="0.16">
    <rect x="22" y="26" width="776" height="468" rx="18" fill="#0C121E" stroke="#A4B4D7" stroke-opacity="0.12"/>
    <rect x="42" y="48" width="126" height="410" rx="8" fill="#17120F"/>
    <rect x="214" y="78" width="474" height="14" rx="7" fill="#45484C"/>
    <text x="410" y="114" text-anchor="middle" fill="#161B22" font-family="Segoe UI, Arial, sans-serif" font-size="26" font-weight="700">Bem-vindo ao PokeXGames</text>
    <circle cx="286" cy="224" r="42" fill="#E04E63"/>
    <circle cx="560" cy="152" r="54" fill="#2D6EEA"/>
    <circle cx="628" cy="182" r="38" fill="#E46A30"/>
    <circle cx="702" cy="214" r="56" fill="#2EC3B1"/>
    <rect x="482" y="304" width="182" height="106" rx="16" fill="#15181E"/>
    <rect x="330" y="308" width="98" height="76" rx="14" fill="#3D2D11"/>
    <rect x="502" y="368" width="188" height="86" rx="14" fill="#080A10"/>
  </g>

  <g filter="url(#shadow)">
    <rect x="4" y="18" width="812" height="488" fill="#05070D" fill-opacity="0.58"/>
  </g>

  <text x="410" y="72" fill="#FFFFFF" font-family="Segoe UI, Arial, sans-serif" font-size="38" text-anchor="middle">Grupo de Pokémon</text>

  <g opacity="0.96">
    <text x="38" y="146" fill="#FFFFFF" fill-opacity="0.72" font-family="Segoe UI, Arial, sans-serif" font-size="30">Grupo</text>
    <text x="38" y="208" fill="#FFFFFF" fill-opacity="0.62" font-family="Segoe UI, Arial, sans-serif" font-size="24">Saque</text>
    <text x="36" y="272" fill="#FFFFFF" font-family="Segoe UI, Arial, sans-serif" font-size="30">Detalhes</text>
    <rect x="194" y="240" width="6" height="40" rx="3" fill="#4D7CFF"/>
    <text x="38" y="334" fill="#FFFFFF" fill-opacity="0.62" font-family="Segoe UI, Arial, sans-serif" font-size="24">Recargas</text>
    <text x="38" y="396" fill="#FFFFFF" fill-opacity="0.62" font-family="Segoe UI, Arial, sans-serif" font-size="24">Novo Grupo</text>
  </g>

  <g>
    <text x="242" y="132" fill="#FFFFFF" font-family="Segoe UI, Arial, sans-serif" font-size="20">Categoria</text>
    <rect x="238" y="142" width="206" height="50" fill="#07090D" stroke="#D7D8DA" stroke-opacity="0.42"/>
    <text x="252" y="174" fill="#FFFFFF" fill-opacity="0.94" font-family="Segoe UI, Arial, sans-serif" font-size="18">Saque</text>
    <path d="M412 162L421 171L430 162" stroke="#FFFFFF" stroke-width="3.4" stroke-linecap="round" stroke-linejoin="round"/>
  </g>

  <g>
    <text x="454" y="132" fill="#FFFFFF" font-family="Segoe UI, Arial, sans-serif" font-size="20">Jogador</text>
    <rect x="450" y="142" width="206" height="50" fill="#07090D" stroke="#D7D8DA" stroke-opacity="0.42"/>
    <text x="464" y="174" fill="#FFFFFF" fill-opacity="0.94" font-family="Segoe UI, Arial, sans-serif" font-size="18">Tudo</text>
    <path d="M624 162L633 171L642 162" stroke="#FFFFFF" stroke-width="3.4" stroke-linecap="round" stroke-linejoin="round"/>
  </g>

  <g opacity="0.96">
    <text x="340" y="224" fill="#FFFFFF" font-family="Segoe UI, Arial, sans-serif" font-size="22">Item</text>
    <text x="488" y="224" fill="#FFFFFF" font-family="Segoe UI, Arial, sans-serif" font-size="22">Contagem</text>
    <text x="648" y="224" fill="#FFFFFF" font-family="Segoe UI, Arial, sans-serif" font-size="22">Valor (dl)</text>
    <text x="506" y="320" fill="#FFFFFF" fill-opacity="0.46" font-family="Segoe UI, Arial, sans-serif" font-size="18">Vazio</text>
  </g>

  <g opacity="0.96">
    <text x="240" y="424" fill="#FFFFFF" font-family="Segoe UI, Arial, sans-serif" font-size="20">Ganho total: 0</text>
    <text x="298" y="466" fill="#D8E3FF" font-family="Segoe UI Symbol, Segoe UI, Arial, sans-serif" font-size="48">«‹</text>
    <text x="376" y="460" fill="#FFFFFF" font-family="Segoe UI, Arial, sans-serif" font-size="18">Página: 1 / 1</text>
    <text x="500" y="466" fill="#D8E3FF" font-family="Segoe UI Symbol, Segoe UI, Arial, sans-serif" font-size="48">›»</text>
  </g>

  <rect x="630" y="432" width="156" height="44" rx="22" fill="url(#danger)"/>
  <text x="708" y="460" fill="#FFFFFF" font-family="Segoe UI, Arial, sans-serif" font-size="18" text-anchor="middle">Redefinir</text>

  <path d="M768 48L790 70" stroke="#FF4747" stroke-width="5.4" stroke-linecap="round"/>
  <path d="M790 48L768 70" stroke="#FF4747" stroke-width="5.4" stroke-linecap="round"/>
</svg>
